<svg width="1600" height="1000" viewBox="0 0 1600 1000" fill="none" xmlns="http://www.w3.org/2000/svg">
  <rect width="1600" height="1000" fill="#121923"/>
  <g stroke="#90A9C7" stroke-opacity="0.16" stroke-width="2">
    <path d="M-40 240C128 160 246 164 390 222C547 285 663 284 804 232C931 185 1054 184 1198 244C1333 301 1455 303 1640 222"/>
    <path d="M-40 332C121 250 244 256 386 312C548 377 661 378 813 318C952 263 1068 263 1208 324C1340 382 1460 384 1640 309"/>
    <path d="M-40 430C117 352 245 355 390 410C547 469 669 469 814 414C955 359 1070 359 1211 418C1346 474 1460 474 1640 404"/>
    <path d="M-40 534C122 454 247 457 392 514C550 575 667 575 814 516C953 460 1074 462 1216 522C1351 580 1461 581 1640 511"/>
    <path d="M-40 640C128 560 246 560 392 618C547 679 669 682 816 621C956 564 1071 564 1214 626C1348 685 1467 688 1640 620"/>
    <path d="M-40 752C121 672 247 673 392 730C547 791 668 792 816 734C955 680 1078 680 1219 740C1350 797 1461 798 1640 730"/>
  </g>
  <circle cx="1340" cy="180" r="230" fill="#4DA3FF" fill-opacity="0.06"/>
</svg>
