<svg width="1600" height="1000" viewBox="0 0 1600 1000" fill="none" xmlns="http://www.w3.org/2000/svg">
  <rect width="1600" height="1000" fill="#08102B"/>
  <rect width="1600" height="650" fill="url(#sky)"/>
  <circle cx="1040" cy="370" r="82" fill="#FFF8F1"/>
  <circle cx="1040" cy="370" r="150" fill="#FFF8F1" fill-opacity="0.18"/>
  <circle cx="1040" cy="370" r="220" fill="#FFF8F1" fill-opacity="0.08"/>
  <path d="M0 542L118 518L246 582L390 468L520 546L662 428L810 536L946 482L1088 526L1232 392L1386 544L1524 498L1600 522V1000H0V542Z" fill="#8177DD"/>
  <path d="M0 612L126 584L266 630L402 552L540 616L692 520L840 612L982 572L1126 610L1264 532L1412 622L1542 594L1600 612V1000H0V612Z" fill="#645DBB"/>
  <path d="M0 700L142 670L286 712L432 642L582 704L734 624L886 700L1028 654L1172 702L1320 634L1464 708L1600 678V1000H0V700Z" fill="#39447D"/>
  <path d="M0 796L122 762L266 804L420 750L572 800L728 734L882 804L1028 754L1178 804L1326 736L1468 802L1600 770V1000H0V796Z" fill="#15182F"/>
  <g fill="#090B1E">
    <path d="M86 856L122 736L158 856H86Z"/>
    <path d="M142 856L188 620L234 856H142Z"/>
    <path d="M220 856L254 742L288 856H220Z"/>
    <path d="M302 856L344 662L386 856H302Z"/>
    <path d="M396 856L430 754L464 856H396Z"/>
    <path d="M484 856L526 678L568 856H484Z"/>
    <path d="M586 856L630 612L674 856H586Z"/>
    <path d="M690 856L724 760L758 856H690Z"/>
    <path d="M784 856L826 694L868 856H784Z"/>
    <path d="M882 856L928 626L974 856H882Z"/>
    <path d="M992 856L1024 770L1056 856H992Z"/>
    <path d="M1074 856L1118 666L1162 856H1074Z"/>
    <path d="M1180 856L1216 756L1252 856H1180Z"/>
    <path d="M1270 856L1320 612L1370 856H1270Z"/>
    <path d="M1386 856L1424 742L1462 856H1386Z"/>
  </g>
  <path d="M1266 732C1284 708 1300 696 1318 690C1338 684 1356 686 1374 694C1394 702 1414 714 1436 722C1458 730 1484 732 1512 724C1494 742 1470 754 1444 760C1418 766 1390 766 1362 760C1332 754 1302 748 1266 732Z" fill="#070916"/>
  <path d="M1378 664C1362 646 1350 628 1334 608C1346 614 1356 624 1366 632C1364 614 1364 602 1368 586C1378 602 1384 618 1388 634C1400 618 1414 606 1430 596C1424 616 1416 632 1406 648C1422 650 1436 654 1450 664C1428 668 1404 670 1378 664Z" fill="#070916"/>
  <path d="M842 644C856 654 870 660 886 662C902 664 918 660 932 650C924 668 910 680 892 682C872 684 854 672 842 644Z" fill="#12162F"/>
  <path d="M824 636C836 626 846 618 858 610C854 622 854 630 856 640C868 632 880 628 894 626C884 638 874 646 862 650C874 656 884 664 894 676C878 672 868 668 858 660C848 668 838 674 822 680C830 666 832 656 834 648C822 650 812 650 796 648C808 642 816 638 824 636Z" fill="#12162F"/>
  <defs>
    <linearGradient id="sky" x1="800" y1="0" x2="800" y2="650" gradientUnits="userSpaceOnUse">
      <stop stop-color="#1E4FA8"/>
      <stop offset="0.42" stop-color="#5C8DDB"/>
      <stop offset="0.72" stop-color="#C9B7CE"/>
      <stop offset="1" stop-color="#F4D7BA"/>
    </linearGradient>
  </defs>
</svg>
