<svg width="1600" height="1000" viewBox="0 0 1600 1000" fill="none" xmlns="http://www.w3.org/2000/svg">
  <rect width="1600" height="1000" fill="#0B1030"/>
  <rect width="1600" height="650" fill="url(#sky)"/>
  <path d="M0 505L88 540L164 548L242 518L324 534L414 498L510 516L620 456L750 484L878 424L1002 338L1116 426L1226 470L1338 434L1456 494L1544 540L1600 532V1000H0V505Z" fill="#FF7B34"/>
  <path d="M0 584L94 610L198 604L300 572L418 586L544 548L682 516L842 486L980 506L1126 544L1268 532L1410 574L1532 604L1600 590V1000H0V584Z" fill="#FF4A3B"/>
  <path d="M0 666L110 690L230 676L352 636L486 664L636 630L786 612L930 626L1078 650L1220 640L1368 672L1518 654L1600 676V1000H0V666Z" fill="#D2165F"/>
  <path d="M0 758L118 734L256 756L394 720L548 760L706 732L856 748L1002 720L1148 756L1292 734L1446 770L1600 742V1000H0V758Z" fill="#5E165E"/>
  <path d="M0 858L72 790L124 764L176 716L226 738L284 682L344 732L402 684L458 760L514 706L570 756L626 706L692 790L748 722L812 766L870 710L940 806L1010 708L1070 764L1130 708L1192 790L1252 716L1322 794L1392 724L1466 796L1530 752L1600 780V1000H0V858Z" fill="#10123B"/>
  <path d="M792 447L856 404L920 447L910 458H802L792 447Z" fill="#270B34"/>
  <path d="M821 382H829V404H821V382Z" fill="#270B34"/>
  <path d="M810 458H902V687H810V458Z" fill="#341044"/>
  <path d="M786 687H926L940 708H772L786 687Z" fill="#180A25"/>
  <path d="M816 510H896" stroke="#230C33" stroke-width="6"/>
  <path d="M820 560H892" stroke="#230C33" stroke-width="6"/>
  <path d="M824 612H888" stroke="#230C33" stroke-width="6"/>
  <path d="M810 687L856 458L902 687" stroke="#230C33" stroke-width="6"/>
  <path d="M902 687L856 458L810 687" stroke="#230C33" stroke-width="6"/>
  <path d="M810 520L902 602" stroke="#230C33" stroke-width="6"/>
  <path d="M902 520L810 602" stroke="#230C33" stroke-width="6"/>
  <path d="M810 582L902 654" stroke="#230C33" stroke-width="6"/>
  <path d="M902 582L810 654" stroke="#230C33" stroke-width="6"/>
  <path d="M950 532C1004 550 1050 558 1098 552C1142 548 1182 556 1228 578" stroke="#341044" stroke-width="4" stroke-linecap="round"/>
  <path d="M236 382C250 424 252 488 238 550" stroke="#E9FFF8" stroke-opacity="0.12" stroke-width="8" stroke-linecap="round"/>
  <path d="M270 396C282 448 284 512 270 592" stroke="#E9FFF8" stroke-opacity="0.1" stroke-width="6" stroke-linecap="round"/>
  <g fill="#1A0D3A">
    <path d="M132 852L160 778L188 852H132Z"/>
    <path d="M176 852L208 726L240 852H176Z"/>
    <path d="M234 852L262 764L290 852H234Z"/>
    <path d="M300 852L332 690L364 852H300Z"/>
    <path d="M368 852L396 772L424 852H368Z"/>
    <path d="M434 852L468 720L502 852H434Z"/>
    <path d="M510 852L546 680L582 852H510Z"/>
    <path d="M592 852L620 770L648 852H592Z"/>
    <path d="M660 852L696 710L732 852H660Z"/>
    <path d="M746 852L782 660L818 852H746Z"/>
    <path d="M824 852L854 748L884 852H824Z"/>
    <path d="M892 852L928 694L964 852H892Z"/>
    <path d="M978 852L1006 782L1034 852H978Z"/>
    <path d="M1044 852L1082 694L1120 852H1044Z"/>
    <path d="M1134 852L1166 770L1198 852H1134Z"/>
    <path d="M1210 852L1248 678L1286 852H1210Z"/>
    <path d="M1300 852L1332 756L1364 852H1300Z"/>
    <path d="M1372 852L1410 680L1448 852H1372Z"/>
  </g>
  <g fill="#FFF4E0">
    <path d="M1118 486C1126 482 1132 478 1140 472C1138 480 1140 484 1144 490C1136 490 1130 490 1124 486C1118 492 1110 494 1102 494C1108 488 1112 486 1118 486Z"/>
    <path d="M1158 498C1166 494 1172 490 1180 484C1178 492 1180 496 1184 502C1176 502 1170 502 1164 498C1158 504 1150 506 1142 506C1148 500 1152 498 1158 498Z"/>
    <path d="M1200 516C1208 512 1214 508 1222 502C1220 510 1222 514 1226 520C1218 520 1212 520 1206 516C1200 522 1192 524 1184 524C1190 518 1194 516 1200 516Z"/>
  </g>
  <defs>
    <linearGradient id="sky" x1="800" y1="0" x2="800" y2="650" gradientUnits="userSpaceOnUse">
      <stop stop-color="#0A44A8"/>
      <stop offset="0.42" stop-color="#1EB5EF"/>
      <stop offset="0.76" stop-color="#89E8F4"/>
      <stop offset="1" stop-color="#EAFBF2"/>
    </linearGradient>
  </defs>
</svg>
